<svg width="237" height="119" viewBox="0 0 237 119" fill="none" xmlns="http://www.w3.org/2000/svg">
<g clip-path="url(#clip0_2_413)">
<path d="M135.208 25.7773H135.212V25.783C147.047 25.7844 155.893 29.8934 161.797 36.535C167.183 42.5952 170.076 50.7388 170.524 59.7664H170.499V62.7759H102.849C102.941 71.8713 105.483 80.0701 110.695 85.9998C115.979 92.0125 124.066 95.7327 135.204 95.7327V95.7264H135.208H135.213V95.7327C146.349 95.7313 154.436 92.0123 159.719 86.0007C163.04 82.2241 165.276 77.524 166.486 72.2605H169.573C168.295 78.2681 165.793 83.6546 161.99 87.9807C156.151 94.6247 147.306 98.736 135.213 98.737V98.742H135.208H135.204V98.737C123.111 98.7358 114.264 94.6235 108.424 87.9781C102.611 81.3646 99.8315 72.2756 99.8303 62.266H99.8244V62.2596V62.257H99.8301C99.8301 52.2408 102.74 43.1469 108.62 36.5333C114.523 29.8925 123.368 25.7842 135.203 25.7828V25.7771H135.208V25.7773ZM167.504 59.7601C167.065 51.4637 164.424 44.0231 159.538 38.5252C154.191 32.5101 146.103 28.7877 135.212 28.787V28.7927H135.208H135.203V28.787C124.312 28.7875 116.226 32.5098 110.879 38.5245C105.991 44.0219 103.351 51.4637 102.912 59.7601H167.504Z" fill="#27272A"/>
<path d="M35.3841 25.7773H35.3872V25.783C47.223 25.7844 56.0695 29.8934 61.9734 36.535C67.3597 42.5952 70.2527 50.7388 70.6995 59.7665H70.6751V62.7759H3.02483C3.1175 71.8713 5.65885 80.0701 10.8707 85.9998C16.1539 92.0125 24.243 95.7328 35.3796 95.7328V95.7264H35.3841H35.3891V95.7328C46.5255 95.7313 54.6126 92.0123 59.8961 86.0007C63.216 82.2241 65.4518 77.5241 66.6619 72.2605H69.7498C68.4717 78.2681 65.9687 83.6546 62.1668 87.9808C56.3266 94.6247 47.4815 98.7361 35.3891 98.737V98.742H35.3841H35.3796V98.737C23.2867 98.7358 14.4402 94.6235 8.60002 87.9782C2.78712 81.3649 0.007821 72.2761 0.005688 62.2663H0V62.2599V62.2573H0.005688C0.006399 52.2411 2.91676 43.1471 8.79554 36.5336C14.6987 29.8927 23.5443 25.7844 35.3789 25.783V25.7773H35.3841V25.7773ZM67.6791 59.7601C67.2414 51.4637 64.601 44.0231 59.7143 38.5252C54.3673 32.5101 46.2795 28.7877 35.3874 28.787V28.7927H35.3841H35.3789V28.787C24.4887 28.7875 16.4018 32.5098 11.0546 38.5245C6.16721 44.0219 3.52609 51.4637 3.08835 59.7601H67.6791Z" fill="#27272A"/>
<path d="M79.454 0V97.2349H76.4259V0H79.454Z" fill="#27272A"/>
<path d="M237 97.235H233.972V53.249H233.978V52.3551C233.978 52.2378 233.976 52.1105 233.973 51.9748C233.892 47.6378 233.6 43.4821 231.399 39.6535C227.299 32.5216 218.512 28.7929 207.287 28.7929C206.695 28.7929 206.192 28.8012 205.778 28.8177C201.047 29.004 196.357 30.1266 192.289 32.5995C183.302 38.0656 179.262 48.8577 179.103 60.6361V97.235H176.075V27.2855H179.103V44.2813C181.466 38.3474 185.274 33.3426 190.716 30.032C195.213 27.2971 200.427 26.0195 205.66 25.8135C206.275 25.7896 206.817 25.7776 207.287 25.7776C219.612 25.7776 229.351 30.0268 234.025 38.1579C236.487 42.4411 236.899 47.0706 236.99 51.9276C236.993 52.0555 236.994 52.1953 236.995 52.3438V52.3494C236.995 68.097 237 81.4777 237 97.235Z" fill="#27272A"/>
<path d="M93.898 0V97.2349H90.8705V0H93.898Z" fill="#27272A"/>
<path d="M8.35401 113.725C8.35401 114.08 8.40615 114.317 8.51091 114.435C8.61495 114.552 8.80858 114.61 9.08705 114.61C9.16811 114.61 9.26717 114.607 9.38212 114.604C9.49659 114.599 9.64495 114.588 9.82839 114.573V115.699C9.59874 115.74 9.39515 115.766 9.21314 115.787C9.03254 115.807 8.87115 115.818 8.72776 115.818C8.0836 115.818 7.62974 115.696 7.36857 115.458C7.11024 115.216 6.98036 114.789 6.98036 114.176V108.878H5.75673V107.825H6.98036V105.622H8.35425V107.825H9.82839V108.878H8.35425V113.725H8.35401ZM19.1361 115.714V110.859C19.1361 110.08 19.0133 109.541 18.7657 109.248C18.5175 108.953 18.0919 108.805 17.492 108.805C16.7495 108.805 16.1572 109.008 15.719 109.414C15.2803 109.818 15.0613 110.363 15.0613 111.054V115.714H13.6875V104.865H15.0613V108.938C15.3128 108.51 15.656 108.184 16.0944 107.961C16.5322 107.737 17.0441 107.626 17.6309 107.626C18.2462 107.626 18.7657 107.716 19.188 107.894C19.6103 108.073 19.9364 108.342 20.1666 108.702C20.2938 108.893 20.3851 109.117 20.4424 109.376C20.4969 109.632 20.5261 110.042 20.5261 110.603V110.977V115.714H19.1361ZM26.188 111.054H30.6794C30.6744 110.316 30.4815 109.747 30.0976 109.348C29.717 108.948 29.1742 108.747 28.4729 108.747C27.7949 108.747 27.2604 108.943 26.8708 109.336C26.4824 109.731 26.253 110.301 26.188 111.054ZM30.6505 113.165H32.0097C31.8611 114.035 31.4703 114.721 30.8332 115.222C30.1966 115.722 29.3937 115.973 28.4263 115.973C27.2915 115.973 26.394 115.606 25.737 114.869C25.0801 114.132 24.7509 113.127 24.7509 111.855C24.7509 110.509 25.0767 109.459 25.7294 108.702C26.3812 107.945 27.2813 107.568 28.4263 107.568C29.602 107.568 30.5126 107.917 31.1567 108.614C31.8009 109.311 32.1242 110.297 32.1242 111.568C32.1242 111.729 32.1242 111.85 32.1223 111.928C32.1197 112.006 32.1121 112.083 32.1009 112.156H26.1958C26.2113 112.986 26.4246 113.63 26.8374 114.085C27.2488 114.541 27.8238 114.766 28.5559 114.766C29.1171 114.766 29.5788 114.628 29.944 114.349C30.309 114.072 30.5436 113.678 30.6505 113.165ZM42.8361 111.054H47.3275C47.3225 110.316 47.1289 109.747 46.7456 109.348C46.3653 108.948 45.823 108.747 45.1212 108.747C44.443 108.747 43.908 108.943 43.5198 109.336C43.1304 109.731 42.901 110.301 42.8361 111.054ZM47.299 113.165H48.6575C48.5092 114.035 48.1174 114.721 47.4818 115.222C46.8447 115.722 46.0415 115.973 45.0741 115.973C43.9393 115.973 43.0418 115.606 42.3848 114.869C41.7272 114.132 41.3987 113.127 41.3987 111.855C41.3987 110.509 41.7246 109.459 42.377 108.702C43.029 107.945 43.9284 107.568 45.0741 107.568C46.2498 107.568 47.1604 107.917 47.8046 108.614C48.4487 109.311 48.7727 110.297 48.7727 111.568C48.7727 111.729 48.7727 111.85 48.7701 111.928C48.7668 112.006 48.7592 112.083 48.749 112.156H42.8439C42.8593 112.986 43.0733 113.63 43.4855 114.085C43.8976 114.541 44.4712 114.766 45.2047 114.766C45.7652 114.766 46.2268 114.628 46.5921 114.349C46.957 114.072 47.1917 113.678 47.299 113.165ZM52.911 115.714V104.865H54.3093V115.714H52.911ZM58.9981 115.714V104.865H60.3957V115.714H58.9981ZM64.865 111.054H69.3564C69.3517 110.316 69.1583 109.747 68.7746 109.348C68.3939 108.948 67.8519 108.747 67.1499 108.747C66.4716 108.747 65.9374 108.943 65.5485 109.336C65.1603 109.731 64.9302 110.301 64.865 111.054ZM69.3282 113.165H70.6874C70.5381 114.035 70.1473 114.721 69.5102 115.222C68.8743 115.722 68.0707 115.973 67.1032 115.973C65.9685 115.973 65.0717 115.606 64.414 114.869C63.757 114.132 63.4278 113.127 63.4278 111.855C63.4278 110.509 63.7544 109.459 64.4069 108.702C65.0582 107.945 65.9583 107.568 67.1032 107.568C68.279 107.568 69.19 107.917 69.8342 108.614C70.4783 109.311 70.8019 110.297 70.8019 111.568C70.8019 111.729 70.8018 111.85 70.7992 111.928C70.7966 112.006 70.7891 112.083 70.7786 112.156H64.8731C64.8892 112.986 65.1025 113.63 65.5149 114.085C65.9268 114.541 66.501 114.766 67.2338 114.766C67.7946 114.766 68.256 114.628 68.6219 114.349C68.9862 114.072 69.2208 113.678 69.3282 113.165ZM80.3733 115.714V110.859C80.3733 110.084 80.251 109.546 80.0024 109.251C79.7555 108.953 79.3301 108.805 78.7302 108.805C77.9607 108.805 77.3632 109.014 76.9383 109.434C76.5133 109.854 76.2993 110.449 76.2993 111.221V115.714H74.9247V107.825H76.2389V108.974C76.5546 108.518 76.9281 108.178 77.3606 107.958C77.7933 107.737 78.2967 107.626 78.8681 107.626C79.4841 107.626 80.0022 107.716 80.4252 107.894C80.8476 108.073 81.1742 108.342 81.4036 108.702C81.5308 108.893 81.6221 109.117 81.6794 109.376C81.7347 109.632 81.7631 110.042 81.7631 110.603V110.977V115.714H80.3733ZM98.255 111.717C98.255 110.738 98.0493 110.002 97.6397 109.507C97.2302 109.011 96.6225 108.763 95.8191 108.763C95.0443 108.763 94.4445 109.034 94.0222 109.577C93.5991 110.118 93.3882 110.89 93.3882 111.885C93.3882 112.783 93.6048 113.49 94.0406 114.004C94.4758 114.521 95.073 114.779 95.8319 114.779C96.6014 114.779 97.1987 114.515 97.6217 113.985C98.0436 113.454 98.255 112.697 98.255 111.717ZM99.5381 104.865V115.714H98.2081V114.721C97.8582 115.134 97.4599 115.443 97.0162 115.649C96.5758 115.855 96.0845 115.959 95.5503 115.959C94.4599 115.959 93.5913 115.581 92.9419 114.826C92.2921 114.072 91.966 113.064 91.966 111.796C91.966 110.504 92.2918 109.477 92.945 108.715C93.5963 107.95 94.4649 107.568 95.5501 107.568C96.1215 107.568 96.6275 107.671 97.0655 107.875C97.5065 108.078 97.8872 108.382 98.2078 108.793V104.865H99.5381V104.865ZM105.284 111.054H109.775C109.77 110.316 109.577 109.747 109.193 109.348C108.813 108.948 108.27 108.747 107.569 108.747C106.89 108.747 106.356 108.943 105.966 109.336C105.578 109.731 105.349 110.301 105.284 111.054ZM109.746 113.165H111.105C110.957 114.035 110.565 114.721 109.929 115.222C109.292 115.722 108.489 115.973 107.522 115.973C106.387 115.973 105.489 115.606 104.832 114.869C104.175 114.132 103.846 113.127 103.846 111.855C103.846 110.509 104.172 109.459 104.825 108.702C105.476 107.945 106.376 107.568 107.522 107.568C108.697 107.568 109.608 107.917 110.252 108.614C110.896 109.311 111.22 110.297 111.22 111.568C111.22 111.729 111.22 111.85 111.218 111.928C111.214 112.006 111.207 112.083 111.197 112.156H105.292C105.307 112.986 105.52 113.63 105.933 114.085C106.345 114.541 106.919 114.766 107.652 114.766C108.213 114.766 108.674 114.628 109.039 114.349C109.404 114.072 109.639 113.678 109.746 113.165ZM118.024 108.762C117.25 108.762 116.652 109.021 116.235 109.541C115.817 110.062 115.609 110.806 115.609 111.775C115.609 112.723 115.822 113.459 116.251 113.986C116.678 114.515 117.276 114.779 118.04 114.779C118.874 114.779 119.493 114.538 119.891 114.051C120.29 113.569 120.492 112.827 120.492 111.824C120.492 110.814 120.284 110.052 119.868 109.537C119.454 109.021 118.838 108.762 118.024 108.762ZM120.444 114.748C120.124 115.158 119.748 115.463 119.318 115.667C118.888 115.87 118.397 115.973 117.847 115.973C116.74 115.973 115.854 115.586 115.181 114.814C114.508 114.04 114.171 113.017 114.171 111.744C114.171 110.488 114.508 109.477 115.184 108.715C115.86 107.951 116.751 107.568 117.862 107.568C118.402 107.568 118.877 107.669 119.289 107.868C119.698 108.066 120.079 108.382 120.431 108.82V107.825H121.775V115.546C121.775 116.763 121.475 117.643 120.872 118.186C120.272 118.729 119.302 119 117.961 119C116.876 119 116.028 118.797 115.418 118.389C114.805 117.982 114.5 117.416 114.5 116.695V116.637H115.846V116.668C115.846 117.074 116.025 117.379 116.386 117.583C116.743 117.786 117.286 117.89 118.008 117.89C118.874 117.89 119.497 117.728 119.875 117.41C120.256 117.09 120.444 116.565 120.444 115.833V114.748H120.444ZM126.534 111.054H131.025C131.021 110.316 130.827 109.747 130.444 109.348C130.063 108.948 129.521 108.747 128.819 108.747C128.141 108.747 127.606 108.943 127.218 109.336C126.83 109.731 126.599 110.301 126.534 111.054ZM130.997 113.165H132.356C132.207 114.035 131.816 114.721 131.179 115.222C130.543 115.722 129.739 115.973 128.772 115.973C127.637 115.973 126.74 115.606 126.082 114.869C125.425 114.132 125.096 113.127 125.096 111.855C125.096 110.509 125.423 109.459 126.076 108.702C126.727 107.945 127.627 107.568 128.772 107.568C129.948 107.568 130.859 107.917 131.503 108.614C132.148 109.311 132.47 110.297 132.47 111.568C132.47 111.729 132.47 111.85 132.468 111.928C132.465 112.006 132.457 112.083 132.447 112.156H126.541C126.558 112.986 126.772 113.63 127.183 114.085C127.596 114.541 128.169 114.766 128.902 114.766C129.463 114.766 129.924 114.628 130.291 114.349C130.655 114.072 130.89 113.678 130.997 113.165ZM142.042 115.714V110.859C142.042 110.084 141.92 109.546 141.672 109.251C141.425 108.953 140.999 108.805 140.399 108.805C139.63 108.805 139.032 109.014 138.607 109.434C138.182 109.854 137.968 110.449 137.968 111.221V115.714H136.594V107.825H137.908V108.974C138.223 108.518 138.597 108.178 139.029 107.958C139.462 107.737 139.965 107.626 140.537 107.626C141.153 107.626 141.671 107.716 142.094 107.894C142.516 108.073 142.843 108.342 143.073 108.702C143.2 108.893 143.291 109.117 143.348 109.376C143.403 109.632 143.431 110.042 143.431 110.603V110.977V115.714H142.042ZM149.095 111.054H153.586C153.581 110.316 153.388 109.747 153.005 109.348C152.623 108.948 152.08 108.747 151.379 108.747C150.701 108.747 150.166 108.943 149.777 109.336C149.389 109.731 149.159 110.301 149.095 111.054ZM153.558 113.165H154.915C154.767 114.035 154.377 114.721 153.74 115.222C153.103 115.722 152.3 115.973 151.332 115.973C150.198 115.973 149.3 115.606 148.643 114.869C147.986 114.132 147.657 113.127 147.657 111.855C147.657 110.509 147.982 109.459 148.636 108.702C149.287 107.945 150.187 107.568 151.332 107.568C152.508 107.568 153.419 107.917 154.063 108.614C154.707 109.311 155.031 110.297 155.031 111.568C155.031 111.729 155.031 111.85 155.027 111.928C155.026 112.006 155.018 112.083 155.006 112.156H149.102C149.117 112.986 149.331 113.63 149.743 114.085C150.155 114.541 150.73 114.766 151.463 114.766C152.023 114.766 152.485 114.628 152.85 114.349C153.216 114.072 153.451 113.678 153.558 113.165ZM157.902 115.714V107.825H159.229V109.24C159.448 108.71 159.746 108.311 160.122 108.05C160.497 107.787 160.956 107.656 161.501 107.656C161.603 107.656 161.678 107.656 161.723 107.658C161.77 107.661 161.814 107.669 161.862 107.679V109.079C161.824 109.075 161.786 109.069 161.738 109.066C161.692 109.063 161.624 109.063 161.532 109.063C160.797 109.063 160.239 109.258 159.853 109.642C159.469 110.026 159.276 110.587 159.276 111.324V115.714H157.902ZM166.696 111.054H171.187C171.182 110.316 170.989 109.747 170.606 109.348C170.224 108.948 169.683 108.747 168.981 108.747C168.302 108.747 167.768 108.943 167.379 109.336C166.99 109.731 166.76 110.301 166.696 111.054ZM171.159 113.165H172.517C172.369 114.035 171.978 114.721 171.341 115.222C170.705 115.722 169.901 115.973 168.933 115.973C167.799 115.973 166.902 115.606 166.244 114.869C165.587 114.132 165.258 113.127 165.258 111.855C165.258 110.509 165.585 109.459 166.237 108.702C166.889 107.945 167.789 107.568 168.933 107.568C170.11 107.568 171.02 107.917 171.664 108.614C172.308 109.311 172.632 110.297 172.632 111.568C172.632 111.729 172.632 111.85 172.63 111.928C172.627 112.006 172.619 112.083 172.609 112.156H166.703C166.719 112.986 166.932 113.63 167.345 114.085C167.756 114.541 168.331 114.766 169.064 114.766C169.624 114.766 170.086 114.628 170.451 114.349C170.817 114.072 171.052 113.678 171.159 113.165ZM176.199 113.15H177.522C177.574 113.686 177.772 114.09 178.122 114.367C178.471 114.641 178.967 114.779 179.609 114.779C180.198 114.779 180.665 114.668 181.007 114.445C181.347 114.221 181.517 113.915 181.517 113.527C181.517 113.238 181.432 113.014 181.263 112.861C181.09 112.704 180.758 112.571 180.263 112.458L178.727 112.075C177.86 111.874 177.261 111.608 176.922 111.276C176.582 110.945 176.414 110.472 176.414 109.859C176.414 109.162 176.688 108.609 177.234 108.199C177.783 107.789 178.532 107.583 179.486 107.583C180.459 107.583 181.23 107.802 181.808 108.24C182.384 108.677 182.671 109.262 182.671 110V110.03H181.332C181.301 109.613 181.124 109.288 180.8 109.06C180.477 108.83 180.039 108.718 179.483 108.718C178.928 108.718 178.509 108.81 178.218 108.997C177.931 109.185 177.788 109.457 177.788 109.817C177.788 110.07 177.88 110.271 178.058 110.415C178.24 110.559 178.578 110.686 179.072 110.794L180.401 111.096C181.347 111.312 182.001 111.589 182.358 111.926C182.714 112.263 182.892 112.743 182.892 113.367C182.892 114.187 182.592 114.821 181.995 115.278C181.395 115.732 180.56 115.959 179.486 115.959C178.435 115.959 177.629 115.717 177.066 115.236C176.504 114.754 176.215 114.06 176.199 113.15ZM192.838 113.15H194.159C194.212 113.686 194.41 114.09 194.76 114.367C195.108 114.641 195.604 114.779 196.246 114.779C196.835 114.779 197.303 114.668 197.644 114.445C197.986 114.221 198.155 113.915 198.155 113.527C198.155 113.238 198.069 113.014 197.9 112.861C197.727 112.704 197.397 112.571 196.9 112.458L195.364 112.075C194.499 111.874 193.899 111.608 193.56 111.276C193.22 110.945 193.051 110.472 193.051 109.859C193.051 109.162 193.325 108.609 193.873 108.199C194.421 107.789 195.169 107.583 196.124 107.583C197.096 107.583 197.869 107.802 198.445 108.24C199.022 108.677 199.308 109.262 199.308 110V110.03H197.971C197.938 109.613 197.762 109.288 197.438 109.06C197.114 108.83 196.677 108.718 196.122 108.718C195.565 108.718 195.146 108.81 194.856 108.997C194.569 109.185 194.426 109.457 194.426 109.817C194.426 110.07 194.517 110.271 194.697 110.415C194.877 110.559 195.216 110.686 195.709 110.794L197.04 111.096C197.986 111.312 198.638 111.589 198.995 111.926C199.353 112.263 199.531 112.743 199.531 113.367C199.531 114.187 199.231 114.821 198.633 115.278C198.034 115.732 197.199 115.959 196.124 115.959C195.073 115.959 194.266 115.717 193.703 115.236C193.142 114.754 192.853 114.06 192.838 113.15ZM208.374 115.714V110.859C208.374 110.08 208.252 109.541 208.004 109.248C207.755 108.953 207.33 108.805 206.731 108.805C205.988 108.805 205.395 109.008 204.958 109.414C204.519 109.818 204.299 110.363 204.299 111.054V115.714H202.925V104.865H204.299V108.938C204.55 108.51 204.895 108.184 205.333 107.961C205.771 107.737 206.282 107.626 206.869 107.626C207.484 107.626 208.004 107.716 208.427 107.894C208.849 108.073 209.175 108.342 209.404 108.702C209.531 108.893 209.624 109.117 209.681 109.376C209.736 109.632 209.764 110.042 209.764 110.603V110.977V115.714H208.374ZM215.364 111.759C215.364 112.738 215.582 113.484 216.018 114.002C216.453 114.52 217.074 114.779 217.885 114.779C218.689 114.779 219.307 114.52 219.734 114.002C220.163 113.484 220.376 112.738 220.376 111.759C220.376 110.786 220.163 110.042 219.734 109.524C219.307 109.006 218.689 108.747 217.885 108.747C217.069 108.747 216.446 109.006 216.013 109.522C215.58 110.037 215.364 110.781 215.364 111.759ZM213.957 111.759C213.957 110.439 214.299 109.408 214.986 108.672C215.671 107.935 216.631 107.568 217.87 107.568C219.114 107.568 220.079 107.935 220.766 108.669C221.453 109.403 221.798 110.435 221.798 111.759C221.798 113.085 221.456 114.118 220.77 114.855C220.084 115.591 219.125 115.959 217.885 115.959C216.642 115.959 215.676 115.591 214.989 114.857C214.302 114.123 213.957 113.089 213.957 111.759ZM227.527 115.714L225.081 107.825H226.51L228.245 113.859L229.86 107.825H231.455L233.055 113.859L234.849 107.825H236.263L233.771 115.714H232.381L230.654 109.637L228.917 115.714H227.527Z" fill="#27272A"/>
</g>
<defs>
<clipPath id="clip0_2_413">
<rect width="237" height="119" fill="white"/>
</clipPath>
</defs>
</svg>
