<svg width="153" height="161" viewBox="0 0 153 161" fill="none" xmlns="http://www.w3.org/2000/svg">
<path fill-rule="evenodd" clip-rule="evenodd" d="M9.62479 20.7452V44.0822C9.62479 47.9372 11.0168 49.7492 13.5968 49.7492C16.3778 49.7492 17.6228 48.0592 17.6228 43.9792V20.6922C17.6228 17.0092 16.4918 14.9732 13.5888 14.9732C11.0108 14.9732 9.62479 16.8172 9.62479 20.7452ZM24.9088 21.4452V43.1122C24.9088 52.0042 21.1358 56.2072 13.2748 56.2072C5.73379 56.2072 2.33879 51.8952 2.33879 43.2342V21.3922C2.33879 12.5072 6.81179 8.45325 13.7278 8.45325C20.7628 8.45325 24.9088 12.5172 24.9088 21.4452Z" fill="white"/>
<path fill-rule="evenodd" clip-rule="evenodd" d="M29.0276 55.5293V9.13135H37.3146C39.1646 15.6783 44.7006 38.5823 45.1926 41.0393H45.2706C44.9396 35.3333 44.9236 28.8033 44.9236 21.1803V9.13135H51.5286V55.5293H43.5556C42.0916 49.9863 35.9166 24.5403 35.4526 22.5913H35.3836C35.7226 28.2083 35.6946 34.4983 35.6946 42.8413V55.5293H29.0276Z" fill="white"/>
<path fill-rule="evenodd" clip-rule="evenodd" d="M73.8963 34.3341H63.6973V48.9481H75.4523L74.5463 55.5291H56.5413V9.1311H74.4603V15.7731H63.6973V27.7541H73.8963V34.3341Z" fill="white"/>
<path fill-rule="evenodd" clip-rule="evenodd" d="M26.9803 90.3658C26.9803 82.4808 27.0663 72.6618 27.2053 67.3438H27.1353C26.0683 75.3958 23.5023 94.1898 21.4943 107.626H14.7413C13.2443 95.5728 10.6523 75.7678 9.59429 67.2828H9.45529C9.59429 72.6918 9.81129 83.1888 9.81129 91.1688V107.626H3.32729V61.2268H13.9873C15.7933 73.0198 17.6533 86.2388 18.2783 92.7408H18.3483C19.1043 86.1588 21.6173 72.3528 23.4763 61.2268H33.7773V107.626H26.9803V90.3658Z" fill="white"/>
<mask id="mask0_2_324" style="mask-type:alpha" maskUnits="userSpaceOnUse" x="0" y="0" width="153" height="161">
<path d="M0.199493 160.399H152.8V0H0.199493V160.399Z" fill="white"/>
</mask>
<g mask="url(#mask0_2_324)">
<path fill-rule="evenodd" clip-rule="evenodd" d="M38.8905 107.626H46.0465V61.2271H38.8905V107.626Z" fill="white"/>
</g>
<mask id="mask1_2_324" style="mask-type:alpha" maskUnits="userSpaceOnUse" x="0" y="0" width="153" height="161">
<path d="M0.199493 160.399H152.8V0H0.199493V160.399Z" fill="white"/>
</mask>
<g mask="url(#mask1_2_324)">
<path fill-rule="evenodd" clip-rule="evenodd" d="M51.1844 61.2266H58.3404V101.228H70.0094L69.4004 107.626H51.1844V61.2266Z" fill="white"/>
</g>
<mask id="mask2_2_324" style="mask-type:alpha" maskUnits="userSpaceOnUse" x="0" y="0" width="153" height="161">
<path d="M0.199493 160.399H152.8V0H0.199493V160.399Z" fill="white"/>
</mask>
<g mask="url(#mask2_2_324)">
<path fill-rule="evenodd" clip-rule="evenodd" d="M71.7449 61.2266H78.9009V101.228H90.5699L89.9609 107.626H71.7449V61.2266Z" fill="white"/>
</g>
<mask id="mask3_2_324" style="mask-type:alpha" maskUnits="userSpaceOnUse" x="0" y="0" width="153" height="161">
<path d="M0.199493 160.399H152.8V0H0.199493V160.399Z" fill="white"/>
</mask>
<g mask="url(#mask3_2_324)">
<path fill-rule="evenodd" clip-rule="evenodd" d="M92.3055 107.626H99.4615V61.2271H92.3055V107.626Z" fill="white"/>
</g>
<mask id="mask4_2_324" style="mask-type:alpha" maskUnits="userSpaceOnUse" x="0" y="0" width="153" height="161">
<path d="M0.199493 160.399H152.8V0H0.199493V160.399Z" fill="white"/>
</mask>
<g mask="url(#mask4_2_324)">
<path fill-rule="evenodd" clip-rule="evenodd" d="M110.897 72.8414V96.1784C110.897 100.033 112.289 101.845 114.869 101.845C117.65 101.845 118.895 100.155 118.895 96.0754V72.7884C118.895 69.1054 117.764 67.0684 114.861 67.0684C112.283 67.0684 110.897 68.9134 110.897 72.8414ZM126.181 73.5414V95.2084C126.181 104.1 122.408 108.303 114.547 108.303C107.006 108.303 103.611 103.991 103.611 95.3304V73.4884C103.611 64.6024 108.084 60.5494 115 60.5494C122.035 60.5494 126.181 64.6134 126.181 73.5414Z" fill="white"/>
</g>
<mask id="mask5_2_324" style="mask-type:alpha" maskUnits="userSpaceOnUse" x="0" y="0" width="153" height="161">
<path d="M0.199493 160.399H152.8V0H0.199493V160.399Z" fill="white"/>
</mask>
<g mask="url(#mask5_2_324)">
<path fill-rule="evenodd" clip-rule="evenodd" d="M130.3 107.626V61.2266H138.587C140.437 67.7746 145.973 90.6786 146.465 93.1356H146.543C146.212 87.4296 146.196 80.8996 146.196 73.2766V61.2266H152.801V107.626H144.828C143.365 102.083 137.189 76.6366 136.725 74.6876H136.656C136.995 80.3046 136.967 86.5946 136.967 94.9376V107.626H130.3Z" fill="white"/>
</g>
<mask id="mask6_2_324" style="mask-type:alpha" maskUnits="userSpaceOnUse" x="0" y="0" width="153" height="161">
<path d="M0.199493 160.399H152.8V0H0.199493V160.399Z" fill="white"/>
</mask>
<g mask="url(#mask6_2_324)">
<path fill-rule="evenodd" clip-rule="evenodd" d="M7.6482 119.965H0.199196V113.322H22.2972V119.965H14.8042V159.721H7.6482V119.965Z" fill="white"/>
</g>
<mask id="mask7_2_324" style="mask-type:alpha" maskUnits="userSpaceOnUse" x="0" y="0" width="153" height="161">
<path d="M0.199493 160.399H152.8V0H0.199493V160.399Z" fill="white"/>
</mask>
<g mask="url(#mask7_2_324)">
<path fill-rule="evenodd" clip-rule="evenodd" d="M31.4593 133.065H33.1003C36.8873 133.065 38.2793 131.638 38.2793 126.592V125.002C38.2793 121.415 37.5373 119.231 33.4813 119.231H31.4593V133.065ZM31.4593 138.973V159.721H24.3033V113.323H34.2153C41.2753 113.323 45.4433 116.152 45.4433 124.503V126.27C45.4433 133.4 42.5173 135.213 40.7203 135.95C43.4263 137.22 44.9733 139.17 44.9733 145.465C44.9733 149.372 44.9043 156.91 45.3983 159.721H38.4873C37.8703 156.918 38.0013 149.297 38.0013 145.927C38.0013 140.271 37.2733 138.973 33.1203 138.973H31.4593Z" fill="white"/>
</g>
<mask id="mask8_2_324" style="mask-type:alpha" maskUnits="userSpaceOnUse" x="0" y="0" width="153" height="161">
<path d="M0.199493 160.399H152.8V0H0.199493V160.399Z" fill="white"/>
</mask>
<g mask="url(#mask8_2_324)">
<path fill-rule="evenodd" clip-rule="evenodd" d="M66.8811 138.526H56.6821V153.14H68.4371L67.5311 159.721H49.5261V113.323H67.4451V119.965H56.6821V131.946H66.8811V138.526Z" fill="white"/>
</g>
<mask id="mask9_2_324" style="mask-type:alpha" maskUnits="userSpaceOnUse" x="0" y="0" width="153" height="161">
<path d="M0.199493 160.399H152.8V0H0.199493V160.399Z" fill="white"/>
</mask>
<g mask="url(#mask9_2_324)">
<path fill-rule="evenodd" clip-rule="evenodd" d="M87.9974 138.526H77.7984V153.14H89.5534L88.6474 159.721H70.6424V113.323H88.5614V119.965H77.7984V131.946H87.9974V138.526Z" fill="white"/>
</g>
<mask id="mask10_2_324" style="mask-type:alpha" maskUnits="userSpaceOnUse" x="0" y="0" width="153" height="161">
<path d="M0.199493 160.399H152.8V0H0.199493V160.399Z" fill="white"/>
</mask>
<g mask="url(#mask10_2_324)">
<path fill-rule="evenodd" clip-rule="evenodd" d="M98.0755 146.065V148.933C98.0755 152.385 99.1115 154.308 101.83 154.308C104.619 154.308 105.341 151.666 105.341 148.653C105.341 143.666 104.266 142.119 99.2905 138.193C94.2975 134.251 91.6305 131.73 91.6305 124.862C91.6305 118.747 93.4815 112.576 101.855 112.585C110.419 112.592 111.742 118.698 111.742 123.731V126.21H104.647V123.923C104.647 120.692 104.102 118.737 101.724 118.737C99.4005 118.737 98.7865 120.758 98.7865 123.834C98.7865 127.112 99.4085 128.717 103.487 131.701C110.43 136.836 112.558 139.817 112.558 147.58C112.558 154.162 110.252 160.399 101.594 160.399C93.0115 160.399 90.9195 154.931 90.9195 148.819V146.065H98.0755Z" fill="white"/>
</g>
<mask id="mask11_2_324" style="mask-type:alpha" maskUnits="userSpaceOnUse" x="0" y="0" width="153" height="161">
<path d="M0.199493 160.399H152.8V0H0.199493V160.399Z" fill="white"/>
</mask>
<g mask="url(#mask11_2_324)">
<path fill-rule="evenodd" clip-rule="evenodd" d="M105.126 30.1539C106.199 30.8209 107.263 31.5119 108.349 32.1499C109.162 32.6269 111.176 33.7559 111.176 33.7559C111.176 33.7559 112.781 30.2429 113.447 28.6009C109.154 26.3309 105.601 23.0349 102.589 18.7879C104.923 19.7109 107.195 20.6089 109.552 21.5399C109.899 19.6829 110.192 18.1209 110.497 16.4939C103.561 13.6749 99.3063 7.42188 95.8773 -0.00012207C92.4483 7.42188 88.1933 13.6749 81.2573 16.4939C81.5623 18.1209 81.8553 19.6829 82.2023 21.5399C84.5583 20.6089 86.8313 19.7109 89.1653 18.7879C86.1533 23.0349 82.6003 26.3309 78.3073 28.6009C78.9733 30.2429 80.5783 33.7559 80.5783 33.7559C80.5783 33.7559 82.5923 32.6269 83.4053 32.1499C84.4913 31.5119 85.5553 30.8209 86.6283 30.1539C84.0123 34.9249 81.1233 39.3189 77.1443 42.5649C78.1073 43.8149 80.2613 46.5099 80.2613 46.5099C80.2613 46.5099 87.3743 44.3459 92.2423 40.1279C92.2423 45.2689 92.2783 55.5289 92.2783 55.5289H95.8773H99.4763C99.4763 55.5289 99.5123 45.2689 99.5123 40.1279C104.379 44.3459 111.493 46.5099 111.493 46.5099C111.493 46.5099 113.647 43.8149 114.61 42.5649C110.631 39.3189 107.742 34.9249 105.126 30.1539Z" fill="white"/>
</g>
</svg>
